<?xml version="1.0" standalone="no"?>
<!DOCTYPE svg PUBLIC "-//W3C//DTD SVG 20010904//EN"
 "http://www.w3.org/TR/2001/REC-SVG-20010904/DTD/svg10.dtd">
<svg version="1.0" xmlns="http://www.w3.org/2000/svg"
 width="384.000000pt" height="384.000000pt" viewBox="0 0 384.000000 384.000000"
 preserveAspectRatio="xMidYMid meet">
<metadata>
Created by potrace 1.14, written by Peter Selinger 2001-2017
</metadata>
<g transform="translate(0.000000,384.000000) scale(0.100000,-0.100000)"
fill="#000000" stroke="none">
<path d="M1920 3600 l0 -240 120 0 120 0 0 -120 0 -120 -120 0 -120 0 0 -360
0 -360 -480 0 -480 0 0 120 0 120 360 0 360 0 0 240 0 240 -120 0 -120 0 0
120 0 120 -120 0 -120 0 0 120 0 120 -240 0 -240 0 0 -120 0 -120 -120 0 -120
0 0 -120 0 -120 -120 0 -120 0 0 -240 0 -240 -120 0 -120 0 0 -360 0 -360 120
0 120 0 0 -120 0 -120 -120 0 -120 0 0 -240 0 -240 120 0 120 0 0 -240 0 -240
120 0 120 0 0 -120 0 -120 360 0 360 0 0 -240 0 -240 840 0 840 0 0 240 0 240
240 0 240 0 0 120 0 120 120 0 120 0 0 120 0 120 120 0 120 0 0 480 0 480
-120 0 -120 0 0 240 0 240 120 0 120 0 0 120 0 120 -120 0 -120 0 0 240 0 240
-120 0 -120 0 0 240 0 240 -120 0 -120 0 0 120 0 120 -600 0 -600 0 0 -240z"/>
</g>
</svg>
